HIERARCHY
ROOT joint_Root
{
	OFFSET 0.0 0.0 0.0
	CHANNELS 6 Xposition Yposition Zposition Zrotation Xrotation Yrotation 
	JOINT Hips
	{
		OFFSET 4.5925 91.4895 -427.239
		CHANNELS 6 Xposition Yposition Zposition Zrotation Xrotation Yrotation 
		JOINT Spine
		{
			OFFSET 15.7357 0.0 0.0
			CHANNELS 6 Xposition Yposition Zposition Zrotation Xrotation Yrotation 
			JOINT Chest
			{
				OFFSET 8.98455 -0.406207 0.0
				CHANNELS 6 Xposition Yposition Zposition Zrotation Xrotation Yrotation 
				JOINT Neck
				{
					OFFSET 16.3773 0.0 0.0
					CHANNELS 6 Xposition Yposition Zposition Zrotation Xrotation Yrotation 
					JOINT Head
					{
						OFFSET 6.45672 0.0 0.0
						CHANNELS 6 Xposition Yposition Zposition Zrotation Xrotation Yrotation 
						End Site
						{
							OFFSET 0.0 0.0 0.0
						}
					}
				}
				JOINT Shoulder_L
				{
					OFFSET 12.9942 -0.242716 4.98039
					CHANNELS 6 Xposition Yposition Zposition Zrotation Xrotation Yrotation 
					JOINT UpperArm_L
					{
						OFFSET 5.34809 0.0 0.0
						CHANNELS 6 Xposition Yposition Zposition Zrotation Xrotation Yrotation 
						JOINT LowerArm_L
						{
							OFFSET 24.3286 1.87007e-05 0.0
							CHANNELS 6 Xposition Yposition Zposition Zrotation Xrotation Yrotation 
							JOINT Hand_L
							{
								OFFSET 22.2916 0.0 0.0
								CHANNELS 6 Xposition Yposition Zposition Zrotation Xrotation Yrotation 
								End Site
								{
									OFFSET 0.0 0.0 0.0
								}
							}
						}
					}
				}
				JOINT Shoulder_R
				{
					OFFSET 12.9945 -0.242716 -4.98039
					CHANNELS 6 Xposition Yposition Zposition Zrotation Xrotation Yrotation 
					JOINT UpperArm_R
					{
						OFFSET -5.34813 0.0 0.0
						CHANNELS 6 Xposition Yposition Zposition Zrotation Xrotation Yrotation 
						JOINT LowerArm_R
						{
							OFFSET -24.3289 0.000322201 0.0
							CHANNELS 6 Xposition Yposition Zposition Zrotation Xrotation Yrotation 
							JOINT Hand_R
							{
								OFFSET -22.2915 -0.000108084 0.0
								CHANNELS 6 Xposition Yposition Zposition Zrotation Xrotation Yrotation 
								End Site
								{
									OFFSET 0.0 0.0 0.0
								}
							}
						}
					}
				}
			}
		}
		JOINT UpperLeg_L
		{
			OFFSET -2.19248 -6.46944 0.0
			CHANNELS 6 Xposition Yposition Zposition Zrotation Xrotation Yrotation 
			JOINT LowerLeg_L
			{
				OFFSET 39.0811 0.0 -1.23785e-05
				CHANNELS 6 Xposition Yposition Zposition Zrotation Xrotation Yrotation 
				JOINT Foot_L
				{
					OFFSET 40.9854 0.0 -1.26872e-05
					CHANNELS 6 Xposition Yposition Zposition Zrotation Xrotation Yrotation 
					JOINT Toes_L
					{
						OFFSET 11.7543 0.0 0.0
						CHANNELS 6 Xposition Yposition Zposition Zrotation Xrotation Yrotation 
						End Site
						{
							OFFSET 0.0 0.0 0.0
						}
					}
				}
			}
		}
		JOINT UpperLeg_R
		{
			OFFSET -2.19251 6.46944 0.0
			CHANNELS 6 Xposition Yposition Zposition Zrotation Xrotation Yrotation 
			JOINT LowerLeg_R
			{
				OFFSET -39.0811 -0.00228153 -0.0401928
				CHANNELS 6 Xposition Yposition Zposition Zrotation Xrotation Yrotation 
				JOINT Foot_R
				{
					OFFSET -40.9854 0.0 0.0
					CHANNELS 6 Xposition Yposition Zposition Zrotation Xrotation Yrotation 
					JOINT Toes_R
					{
						OFFSET -11.7543 0.0 0.0
						CHANNELS 6 Xposition Yposition Zposition Zrotation Xrotation Yrotation 
						End Site
						{
							OFFSET 0.0 0.0 0.0
						}
					}
				}
			}
		}
	}
}
MOTION
Frames:	7
Frame Time:	0.0333333
0.000000 0.000000 0.000000 0.000000 0.000000 -0.000000 3.376990 91.067700 2.570200 88.694800 -16.639500 3.442900 15.735700 0.000005 -0.000001 74.925900 85.136100 -70.757800 8.984550 -0.406207 -0.000000 1.742720 -2.747120 8.371800 16.377300 -0.000001 -0.000001 7.646630 1.631920 -3.143020 6.456720 -0.000001 -0.000000 1.182840 1.907340 2.636460 12.994200 -0.242716 4.980390 -84.472200 -11.240500 -63.596300 5.348090 -0.000007 -0.000001 -44.592700 -65.539500 -83.935200 24.328600 0.000019 0.000005 15.649100 11.585000 -54.364500 22.291600 -0.000001 0.000005 21.861700 5.401000 -2.970160 12.994500 -0.242716 -4.980390 87.565700 10.027100 -76.279100 -5.348130 -0.000001 -0.000004 -59.045900 13.988600 -6.045230 -24.328900 0.000322 -0.000009 -0.843141 -1.760970 -25.560900 -22.291500 -0.000108 -0.000004 17.690100 5.433030 -4.043490 -2.192480 -6.469440 -0.000000 -177.062000 -20.597900 -1.076020 39.081100 -0.000007 -0.000012 -0.173691 0.341880 26.932900 40.985400 -0.000006 -0.000013 0.467064 -0.840206 -72.090000 11.754300 -0.000000 0.000003 -0.000226 -0.002051 -16.654700 -2.192510 6.469440 -0.000001 174.195000 15.047600 175.493000 -39.081100 -0.002282 -0.040193 -0.102517 0.205068 27.295800 -40.985400 0.000008 0.000006 3.814100 20.823500 -69.975700 -11.754300 -0.000006 -0.000006 -0.098086 -0.117555 -16.499400
0.000000 0.000000 0.000000 0.000000 0.000000 -0.000000 3.205650 91.084500 2.566890 88.785200 -15.690200 3.389150 15.735700 0.000005 -0.000001 75.128000 85.163500 -71.091300 8.984550 -0.406207 -0.000000 1.692580 -2.694830 8.107130 16.377300 -0.000001 -0.000001 7.323310 1.511780 -3.057170 6.456720 -0.000001 -0.000000 1.276120 1.868150 2.532780 12.994200 -0.242716 4.980390 -84.949600 -10.439900 -64.001400 5.348090 -0.000007 -0.000001 -42.197900 -64.059200 -79.094600 24.328600 0.000019 0.000005 15.438100 9.836770 -58.261000 22.291600 -0.000001 0.000005 22.029400 5.385050 -2.458590 12.994500 -0.242716 -4.980390 87.520600 10.106700 -76.139100 -5.348130 -0.000001 -0.000004 -58.912700 14.076300 -6.385480 -24.328900 0.000322 -0.000009 -0.942250 -1.946090 -25.815800 -22.291500 -0.000108 -0.000004 17.869600 5.431480 -3.990260 -2.192480 -6.469440 -0.000000 -176.975000 -20.422600 -1.183700 39.081100 -0.000007 -0.000012 -0.173157 0.341533 26.885200 40.985400 -0.000006 -0.000013 0.553893 -0.063979 -71.979800 11.754300 -0.000000 0.000003 -0.000236 -0.002124 -16.657300 -2.192510 6.469440 -0.000001 174.208000 15.566600 175.639000 -39.081100 -0.002282 -0.040193 -0.103872 0.208275 27.230600 -40.985400 0.000008 0.000006 3.763520 20.368100 -70.034700 -11.754300 -0.000006 -0.000006 -0.119430 -0.143308 -16.482900
0.000000 0.000000 0.000000 0.000000 0.000000 -0.000000 3.012510 91.105500 2.566980 88.894500 -14.666800 3.370380 15.735700 0.000005 -0.000001 75.562300 85.190500 -71.654500 8.984550 -0.406207 -0.000000 1.651710 -2.605090 7.847290 16.377300 -0.000001 -0.000001 6.985790 1.321230 -2.886280 6.456720 -0.000001 -0.000000 1.309990 1.773960 2.255050 12.994200 -0.242716 4.980390 -85.543200 -9.396460 -64.480400 5.348090 -0.000007 -0.000001 -38.843100 -61.434000 -72.168000 24.328600 0.000019 0.000005 15.053600 7.593470 -63.838800 22.291600 -0.000001 0.000005 22.659400 5.368040 -1.926520 12.994500 -0.242716 -4.980390 87.470100 10.192200 -75.980100 -5.348130 -0.000001 -0.000004 -58.646200 14.602100 -6.784630 -24.328900 0.000322 -0.000009 -1.065900 -2.205050 -25.784700 -22.291500 -0.000108 -0.000004 18.004700 5.428590 -3.890630 -2.192480 -6.469440 -0.000000 -176.877000 -20.191300 -1.238240 39.081100 -0.000007 -0.000012 -0.172795 0.342139 26.796000 40.985400 -0.000006 -0.000013 0.630902 0.752233 -71.847800 11.754300 -0.000000 0.000003 -0.000229 -0.002076 -16.655600 -2.192510 6.469440 -0.000001 174.165000 16.249100 175.854000 -39.081100 -0.002282 -0.040193 -0.111653 0.224345 27.132100 -40.985400 0.000008 0.000006 3.709450 20.041000 -70.085000 -11.754300 -0.000006 -0.000006 -0.128154 -0.153854 -16.476200
0.000000 0.000000 0.000000 0.000000 0.000000 -0.000000 2.775640 91.117200 2.558610 88.957100 -13.529100 3.428450 15.735700 0.000005 -0.000001 75.796400 85.185900 -72.018000 8.984550 -0.406207 -0.000000 1.665160 -2.561950 7.588370 16.377300 -0.000001 -0.000001 6.616630 1.055740 -2.627970 6.456720 -0.000001 -0.000000 1.265140 1.602400 1.945730 12.994200 -0.242716 4.980390 -86.259300 -8.126970 -65.181300 5.348090 -0.000007 -0.000001 -34.600100 -57.571000 -63.430300 24.328600 0.000019 0.000005 14.761600 5.336290 -70.561900 22.291600 -0.000001 0.000005 23.408100 5.355850 -1.554880 12.994500 -0.242716 -4.980390 87.417900 10.327600 -75.880200 -5.348130 -0.000001 -0.000004 -58.385600 15.190800 -7.224020 -24.328900 0.000322 -0.000009 -1.015250 -2.141890 -25.343800 -22.291500 -0.000108 -0.000004 17.859000 5.425660 -3.791160 -2.192480 -6.469440 -0.000000 -176.684000 -19.859000 -1.263620 39.081100 -0.000007 -0.000012 -0.173097 0.342602 26.805100 40.985400 -0.000006 -0.000013 0.679782 1.570630 -71.749500 11.754300 -0.000000 0.000003 -0.000236 -0.002127 -16.657400 -2.192510 6.469440 -0.000001 174.124000 17.141100 176.203000 -39.081100 -0.002282 -0.040193 -0.123902 0.249469 27.018200 -40.985400 0.000008 0.000006 3.525790 19.825500 -70.092900 -11.754300 -0.000006 -0.000006 -0.177700 -0.213949 -16.437800
0.000000 0.000000 0.000000 0.000000 0.000000 -0.000000 2.516250 91.124800 2.539500 89.008200 -12.359300 3.550520 15.735700 0.000005 -0.000001 76.400500 85.171900 -72.743500 8.984550 -0.406207 -0.000000 1.710080 -2.462170 7.345080 16.377300 -0.000001 -0.000001 6.160710 0.654938 -2.262120 6.456720 -0.000001 -0.000000 1.182060 1.360610 1.494580 12.994200 -0.242716 4.980390 -87.070500 -6.676060 -66.243100 5.348090 -0.000007 -0.000001 -30.782800 -52.072700 -54.101300 24.328600 0.000019 0.000005 14.897000 3.334850 -77.666500 22.291600 -0.000001 0.000005 24.131300 5.344220 -1.204840 12.994500 -0.242716 -4.980390 87.368000 10.449800 -75.777600 -5.348130 -0.000001 -0.000004 -58.090200 16.097500 -7.527610 -24.328900 0.000322 -0.000009 -0.922666 -1.990890 -24.845900 -22.291500 -0.000108 -0.000004 17.672400 5.423820 -3.728070 -2.192480 -6.469440 -0.000000 -176.438000 -19.528500 -1.257330 39.081100 -0.000007 -0.000012 -0.173952 0.343516 26.857200 40.985400 -0.000006 -0.000013 0.726966 2.438620 -71.656000 11.754300 -0.000000 0.000003 -0.000228 -0.002067 -16.655200 -2.192510 6.469440 -0.000001 174.105000 18.029700 176.593000 -39.081100 -0.002282 -0.040193 -0.130779 0.263623 26.959500 -40.985400 0.000008 0.000006 3.513900 19.546200 -70.185900 -11.754300 -0.000006 -0.000006 -0.213702 -0.257839 -16.409900
0.000000 0.000000 0.000000 0.000000 0.000000 -0.000000 2.288200 91.122300 2.469940 89.088700 -11.313100 3.692230 15.735700 0.000005 -0.000001 77.692200 85.130300 -74.211300 8.984550 -0.406207 -0.000000 1.828860 -2.254900 6.992220 16.377300 -0.000001 -0.000001 5.526730 0.223992 -1.741770 6.456720 -0.000001 -0.000000 1.083600 0.972317 1.167970 12.994200 -0.242716 4.980390 -87.873900 -5.091520 -67.301500 5.348090 -0.000007 -0.000001 -28.796000 -44.752300 -45.975700 24.328600 0.000019 0.000005 14.936500 1.716230 -83.593400 22.291600 -0.000001 0.000005 24.397500 5.345340 -1.237780 12.994500 -0.242716 -4.980390 87.342000 10.589300 -75.822500 -5.348130 -0.000001 -0.000004 -57.826400 17.443100 -7.733940 -24.328900 0.000322 -0.000009 -0.872384 -1.935590 -24.240900 -22.291500 -0.000108 -0.000004 17.502300 5.425880 -3.797980 -2.192480 -6.469440 -0.000000 -176.296000 -19.033700 -1.331560 39.081100 -0.000007 -0.000012 -0.179010 0.351593 26.982700 40.985400 -0.000006 -0.000013 0.721708 3.005940 -71.563000 11.754300 -0.000000 0.000003 -0.000242 -0.002171 -16.659000 -2.192510 6.469440 -0.000001 174.083000 18.673500 176.862000 -39.081100 -0.002282 -0.040193 -0.139090 0.279440 27.002800 -40.985400 0.000008 0.000006 3.399730 19.193600 -70.236800 -11.754300 -0.000006 -0.000006 -0.237828 -0.287356 -16.391100
0.000000 0.000000 0.000000 0.000000 0.000000 -0.000000 2.084220 91.118400 2.391770 89.146400 -10.344500 3.803830 15.735700 0.000005 -0.000001 78.790500 85.064400 -75.510400 8.984550 -0.406207 -0.000000 1.986100 -2.082900 6.590710 16.377300 -0.000001 -0.000001 4.821270 -0.189651 -1.188560 6.456720 -0.000001 -0.000000 0.868923 0.568058 1.007700 12.994200 -0.242716 4.980390 -88.725200 -3.181590 -68.154900 5.348090 -0.000007 -0.000001 -28.045500 -35.776300 -39.201700 24.328600 0.000019 0.000005 14.649900 0.819270 -86.869400 22.291600 -0.000001 0.000005 24.013300 5.354400 -1.511110 12.994500 -0.242716 -4.980390 87.366400 10.627100 -75.995100 -5.348130 -0.000001 -0.000004 -57.889800 18.720700 -7.831360 -24.328900 0.000322 -0.000009 -0.727303 -1.658440 -23.652600 -22.291500 -0.000108 -0.000004 17.113400 5.421990 -3.665860 -2.192480 -6.469440 -0.000000 -176.205000 -18.414300 -1.438710 39.081100 -0.000007 -0.000012 -0.178660 0.348971 27.111000 40.985400 -0.000006 -0.000013 0.697868 3.403650 -71.485700 11.754300 -0.000000 0.000003 -0.000247 -0.002212 -16.660500 -2.192510 6.469440 -0.000001 174.122000 19.226500 177.063000 -39.081100 -0.002282 -0.040193 -0.138353 0.276847 27.098600 -40.985400 0.000008 0.000006 3.537950 18.704700 -70.395600 -11.754300 -0.000006 -0.000006 -0.225909 -0.272762 -16.400400
